# xmcd
#
# Track frame offsets: 
#        150
#        18042
#        33365
#        56900
#        80871
#        105035
#        121877
#        141557
#        183177
#        199289
#        224644
#        247897
#        268227
#
# Disc length: 3802 seconds
#
# Revision: 0
# Processed by: cddbd v1.5.2PL0 Copyright (c) Steve Scherf et al.
# Submitted via: ExactAudioCopy v0.99pb3
#
DISCID=bc0ed80d
DTITLE=Al Basile - The Goods
DYEAR=2010
DGENRE=Blues
TTITLE0=The Price (I Got To Pay)
TTITLE1=Along Came The Kid
TTITLE2=Lie Down In Darkness (Raise Up In Light)
TTITLE3=1.843 Million
TTITLE4=Time Can Wait
TTITLE5=I Want to Put It There
TTITLE6=The Itch
TTITLE7=Mr. Graham Bell
TTITLE8=She's A Taker
TTITLE9=Reality Show
TTITLE10=Pealing Bells
TTITLE11=Don't Sleep On Santa
TTITLE12=Distant Ships
EXTD=
EXTT0=
EXTT1=
EXTT2=
EXTT3=
EXTT4=
EXTT5=
EXTT6=
EXTT7=
EXTT8=
EXTT9=
EXTT10=
EXTT11=
EXTT12=
PLAYORDER=
